<mxfile host="app.diagrams.net" agent="Mozilla/5.0 (iPad; CPU OS 18_1_0 like Mac OS X) AppleWebKit/605.1.15 (KHTML, like Gecko) CriOS/133.0.6943.84 Mobile/15E148 Safari/604.1" version="26.0.16">
  <diagram name="Page-1" id="cqrC31TvsqcXvYYEKQqn">
    <mxGraphModel dx="506" dy="573" grid="0" gridSize="10" guides="1" tooltips="1" connect="1" arrows="1" fold="1" page="0" pageScale="1" pageWidth="850" pageHeight="1100" math="0" shadow="0">
      <root>
        <mxCell id="0" />
        <mxCell id="1" parent="0" />
        <mxCell id="ufMhrZ-8Wef5fdvqRtcs-1" value="Text" style="text;strokeColor=none;fillColor=none;html=1;align=center;verticalAlign=middle;whiteSpace=wrap;rounded=0;fontSize=16;rotation=90;" vertex="1" parent="1">
          <mxGeometry x="782" y="241" width="60" height="30" as="geometry" />
        </mxCell>
        <mxCell id="ufMhrZ-8Wef5fdvqRtcs-2" value="" style="shape=stencil(lVfJbttADP0aX4mZ4Sycc5r+R4A4tVHXDhyny9+XgjC2SEcvyE2W+cTtcdvww9vu6XW7SeHtcj793P7ZP192G/62SWl/3G3P+4s+bfhxww8vp/P2x/n0fnyef78+TZLT06/T7+kLf2dcphYmUAr/5heJZH7xfRY/7I8L8RgoZCsfKTMAVMrNALhR7usAtagUAyiROK4DmClak2qgCDRktThZAFMQABBq1qSaKLR1QMlUo/VBoElqcbImFYZO10rBalAjkQ8teh80DB1kujUK1iQuFIHTchfW1CkADdKoOC4x9bQO6Bp16wNXihUAMkXL7olLgK1dqHYD0LjVAgCditXQCgnS0KlbpyWQIKcVUC1AncaAYgE9wsSp000soMCa7s03Df1ERnnQJmCdnrxCYS3DxQWgZQBgEps4NVKQBu1zzuk8OtUaIFoNoj4gQPQmSSYBNT3R29Z066NC1gCuVbZrO1+LkstDC7Dda0yK9aEKJZw4F9baiBFbG0XxGiKKkhAX70PBFZeajxI0qZNkn4cIh2IYjW6RakYFcWXzgkwF95lgnZh6G+5kwfG7jaG0VqPiNHSqiH3F95lFHNbYlJxNgrsr+5pTpZ+0ga8BdAYl64RO1gxMEh4DZDGpC2BTE59q3QVQkTa+q4g8UvPxLtD8AjRVBNgFavTbhlZEB9wohZIbi5o4vDE5Mul2wCAPuoy40a4AARpYtxdnUh9x+3ivTIPNiyihFSvycPGauEoJJK56ZrDAfh/G+LiuP7oFQvlix0MUuP0Ez6OotQCYGvz40QgE0GLump4eBwnbY0utjQayIu4Oh0IBrNBhrI63Q6YDcV1WXXCIEXv8PqLcASV5PaJu4qgx8riIFl8H4tfOf7MdzeQvnnifiuvD7Zp82R8O8zG6/N9fn/pqvlz58T8=);lineShape=1;strokeColor=default;" vertex="1" parent="1">
          <mxGeometry x="786.9199190602208" y="258.17779224771675" width="168.96531175487456" height="41.92462443262814" as="geometry" />
        </mxCell>
        <mxCell id="ufMhrZ-8Wef5fdvqRtcs-3" value="" style="shape=stencil(lVfLctswDPwaXTEEwec5Tf8jM3FqT1074zht8/eBqlIRIWvT3mQZK+KxWICD3L3sH553g3cv18v5++7X4fG6H+TL4P3htN9dDld9GuR+kLun82X37XJ+PT1Ov58fRsvx6cf55/iF3xOuFEp1RHn3Nr3xVP2fF18n++PhtLCvmULu7CtVt23PzpFzHYAL5QJOSMT9CT5TSdsADaFIB5BEEfhUHEnvUggUeRuQmYQ7QPQUQAzJE/sOkBx5kNYY2t8zIJPUbUAo5HqXslAFWQqeJHQATQPLNkCYfM8MrUwALikTTKWVLBWc4KN1qeonMgA4ymwBiEscKZaefB983OBro87yCACIVE2WClXAJU9RbJIyYIZb9VsiH5G9MzkNlID9uspCDhGvVWi2Z8oBNBuxyacWEZCCVX+iBTCqcWk0XgIQ7TTAYgEJlFj1x+aIWxVvt46zelF906itXiurqgnoBAXYTlAiotaprRUXvEMS5pMdDEpsVDhltpgTKkwr51WW1ElUaVXVaAFoMswSurBHKiwUgw2ZYa9VQ6REGfizGoVaNERttyqBegh685Y9qkBuej6PBNz7WoC/4c1DR1OMxKXaiuko9UgdZ3Gb5+AnjaDqZkZzxvolFhAqHP466u22wJSA4o2jvqeFOskghpTahJk3noTr5qzkaaIFxJC0E3vVZmlz4jaAbevoVoZjNq0Tm8hu2pudrc3RTX/MUghXiySrrRNuRyla8WIcbyHf22tAQFmU9tEbezSjsqbP2qO1JZfG4X/7ftGBY+2R/yXYecP4+9qE0eYfCMX/XkM+t9eHjzvP0+F4nK5My//tHUlfTfcruX8H);lineShape=1;strokeColor=default;" vertex="1" parent="1">
          <mxGeometry x="862.8215535419008" y="228.80308943496652" width="38.503889128162754" height="124.24169302938027" as="geometry" />
        </mxCell>
        <mxCell id="ufMhrZ-8Wef5fdvqRtcs-4" value="" style="shape=stencil(lVbbchshDP2afdUAAgTPSfofmYlT78S1M457+/uKbnFWZH06edsLB5DOBSa+e9s/vu6m4N4u59PL7uf8dNlPfD+FMB/3u/N80aeJHya+ez6dd1/Pp+/Hp+X99bGNbE/fTj/aDL8WXHUUU0MF93v5EgpF//fLlwVwmI9rQO2/OyAVygUD7AriqL3eBERK2QCKJ59vA0qiwAagVTEASKBoV6iZCgAkoVQsoFIFRcdAPo4ArrcBQUiGLaU+xSbAJ6q2rUWncKDocbwIFUCDslDN+Jw7L5vjcyf1qotEDlTsQ5dNB8RIGRQQmIIFsK4JAPq72i2xIxFAs7ImoxkKoDkLRf6wAmhqU7Ifa/Cghur7jldd+uenbUChYHlLkSowtHeOnBuZZuToTGKLUCllZNBCYplTrSIt6XzOMqducKDqrGKybWp+A4AoFKxBV33YVlMgHlJG9YUcWinZNrWwRY5w5O0KKhcGako9FlfJikJma3wEJV+3exVrhQ79ICT2cP4w7kctjnJbQ9r2p4Ugg4Yyic08pQSIQjc0MIYTSSWR7XiPRcfjUYglp84dzlpHGdSbYz/FrgTAgJQ45p3A/qgci7WlZxhGanMebheOEvDM568j/wfow/vt53k+HJbL0/r/eFvST8tNix/+AA==);lineShape=1;strokeColor=default;" vertex="1" parent="1">
          <mxGeometry x="843.3785904317847" y="303.2250367815036" width="12.048666782056898" height="16.141932738257115" as="geometry" />
        </mxCell>
        <mxCell id="ufMhrZ-8Wef5fdvqRtcs-5" value="" style="shape=stencil(fZbdcgIhDIWfZm8zQAg/17Z9j85U606tdqz9e/tmZ0c0uJ47xP0I5JwEBl59bp8/1kNwn6fj4W39M76ctgM/DCGM++36OJ50NPDjwKvN4bh+PR6+9i/z74/n6ctp9H74nlb4nbmSKZeJCu5vngmZ6jzzNAO7cX8FVKEsBuBKrgKg9oAE8gkCbLeUhEoEQKSUDZDLeWYRKIl8MEDRmHwfyBrBG6Amyu4+kDxxMoB3jhwgYu7TVAsVkFcWCs4CTBEoF4RctKeOxHIf8IXYpikHikAIf+MNUW94AGSSaoAoFIE3AlOyeWU+p2E5S9yfQZcQILVuQOwZdJNoS9Ls3wA5u2XZTIHECqeJ9kDpSaauRiNVcAY1QhdBzeLBli5WazpkSsBLV25uRaqWRyFawTQzRRIQYirJzq5atkBqLfouwqUxLBepthWb10vrWZY6UOAeyKCCtDV625mm9gmUC4Wc3VLJMMIE1BsA2FW9JraVlQB7n3c9oMKhCLEvIM1zBPZ25/umNQ1tVEC2G+fFCC8g398O2hNQuQlVu752DBfA+q0ptnqO5JFmeuIuo9DY7KjY71UxdJV4EntifPWorW++R/dC4t7V3DlIB5cHx2bc7eb3yvX//QNFp+bHDT/+Aw==);lineShape=1;strokeColor=default;" vertex="1" parent="1">
          <mxGeometry x="2091.3370309785023" y="682.6437498814835" width="13.35011363461555" height="13.329246332450566" as="geometry" />
        </mxCell>
        <mxCell id="ufMhrZ-8Wef5fdvqRtcs-6" value="" style="shape=stencil(lVfZctswDPwavWJIgAf4nKb/kZk4taaunXGcHn9fqBo5IhRvx2+yjCVx7K7IQR7e9k+vu4HD2+V8+r77NT5f9oN8GZjH4353Hi/2NMjjIA8vp/Pu2/n0fnyef78+TZHT04/Tz2mF3zOuNVKdUBz+zG8SFf734uscfxiP6/hMMXbxUYgTBLTaATiQNgBQyqEHNKoYEHIHkEZNASBS6FPKgWq9DaiZtN+hRCoAkAtJ39UaqYbbAFFKfUoaKMhtAGdK/Q5aKCOAkqYOYG1AkxYhaT2AScCkpZByDxBKERat/aRboooAjaIDlIWOnwPqst4VUJdGfw6wBPpJG7sKKjpQdoBGCbDVBrcFtAwAgbjcA4h5EeQKkEGXoumBN0WX2wBdqLnqagbsLlS2YwNNNSL1Yph4AeKNR27KRjyghcjErmCjNig4lmX/tXiQ2iK16AEC1MaVYvUAyNTofdVqCIAWYiYmvksBGYAuGa/GwKBLkzydY2QqKCVdur4iEnK9qQa3gxIDqxf2Vm9aYKS2SrwBKOAesxdPDGbdQA1GJt04APo43A247n/9NjDUc0xeoLVAtlpbXZeKfcDADql518tGFjCHwv6cYUskMOlSl5asTwHIZKo/Z5iXJ1B0MRPqJ22NbsDqDeAUFxkqrgZvrOZjYM51Y9wMPaOyN0rsYnbukT7eCkb5m56ri0f5a/T5WANAQ9UOPcnHo/UbBR+PSGcOmoKLz6BeszdxA4b5m7uV7OKRt0xe1efP8Hy0cp4PAiHh3336/2+8PXxcNV7Gw2G+qaz/91cTezVfa+TxLw==);lineShape=1;strokeColor=default;" vertex="1" parent="1">
          <mxGeometry x="900.8762517543983" y="275.17203718887936" width="32.93458746232968" height="123.89035145589983" as="geometry" />
        </mxCell>
        <mxCell id="ufMhrZ-8Wef5fdvqRtcs-7" value="" style="rounded=0;whiteSpace=wrap;html=1;" vertex="1" parent="1">
          <mxGeometry x="833" y="325" width="160" height="80" as="geometry" />
        </mxCell>
      </root>
    </mxGraphModel>
  </diagram>
</mxfile>
